<svg xmlns="http://www.w3.org/2000/svg" viewBox="0 0 24 24" fill="none" stroke="currentColor" stroke-width="2" stroke-linecap="round" stroke-linejoin="round">
  <path d="M22 7.7c0-.4-.3-.8-.8-.8h-1.8c-.5 0-.9.3-.9.8s.3.8.8.8h1.8c.5 0 .9-.3.9-.8z"/>
  <path d="M4.7 7.7c0-.4-.3-.8-.8-.8H2.1c-.5 0-.8.3-.8.8s.3.8.8.8h1.8c.4 0 .8-.3.8-.8z"/>
  <path d="M12 2.3c-.4 0-.8.3-.8.8v1.8c0 .4.3.8.8.8s.8-.3.8-.8V3.1c0-.5-.4-.8-.8-.8z"/>
  <path d="M12 19.2c-.4 0-.8.3-.8.8v1.8c0 .4.3.8.8.8s.8-.3.8-.8V20c0-.5-.4-.8-.8-.8z"/>
  <path d="M5.6 5.6c-.3 0-.6.1-.8.3-.3.3-.3.8 0 1.1l1.3 1.3c.1.1.3.2.5.2s.4-.1.5-.2c.3-.3.3-.8 0-1.1L6.4 6c-.2-.2-.5-.4-.8-.4z"/>
  <path d="M18.4 5.6c-.3 0-.6.1-.8.3l-1.3 1.3c-.3.3-.3.8 0 1.1.1.1.3.2.5.2s.4-.1.5-.2l1.3-1.3c.3-.3.3-.8 0-1.1-.2-.2-.5-.3-.8-.3z"/>
  <path d="M5.6 18.4c-.3 0-.6.1-.8.3-.3.3-.3.8 0 1.1l1.3 1.3c.1.1.3.2.5.2s.4-.1.5-.2c.3-.3.3-.8 0-1.1l-1.3-1.3c-.2-.2-.5-.3-.8-.3z"/>
  <path d="M17.1 17.1c-.2 0-.4.1-.5.2-.3.3-.3.8 0 1.1l1.3 1.3c.1.1.3.2.5.2s.4-.1.5-.2c.3-.3.3-.8 0-1.1l-1.3-1.3c-.1-.1-.3-.2-.5-.2z"/>
  <path d="M12 7c-2.8 0-5 2.2-5 5s2.2 5 5 5 5-2.2 5-5-2.2-5-5-5z"/>
</svg>
